<svg xmlns="http://www.w3.org/2000/svg">
    <symbol id="back"
            height="24px"
            viewBox="0 -960 960 960"
            width="24px">
        <path d="m313-440 224 224-57 56-320-320 320-320 57 56-224 224h487v80H313Z"/>
    </symbol>
    <symbol id="reload"
            height="24px"
            viewBox="0 -960 960 960"
            width="24px">
        <path d="M479.54-160.87q-133.76 0-226.94-92.89-93.19-92.9-93.19-226.24t93.19-226.24q93.18-92.89 226.94-92.89 70.66 0 134.21 28.97 63.55 28.96 108.01 84.14v-113.11h78.83v280.72H519.63V-597H681.2q-31.54-54.1-85.15-85.11-53.61-31.02-116.47-31.02-97.34 0-165.75 68.03-68.42 68.03-68.42 165.22 0 97.18 68.29 165.1 68.29 67.91 165.84 67.91 74.23 0 134.31-42.28T698.67-401h90.24q-27.24 106.35-113.38 173.24-86.14 66.89-195.99 66.89Z"/>
    </symbol>
    <symbol id="document"
            height="24px"
            viewBox="0 -960 960 960"
            width="24px">
        <path d="M320-240h320v-80H320v80Zm0-160h320v-80H320v80ZM240-80q-33 0-56.5-23.5T160-160v-640q0-33 23.5-56.5T240-880h320l240 240v480q0 33-23.5 56.5T720-80H240Zm280-520v-200H240v640h480v-440H520ZM240-800v200-200 640-640Z"/>
    </symbol>
    <symbol id="folder"
            height="24px"
            viewBox="0 -960 960 960"
            width="24px">
        <path d="M160-160q-33 0-56.5-23.5T80-240v-480q0-33 23.5-56.5T160-800h240l80 80h320q33 0 56.5 23.5T880-640v400q0 33-23.5 56.5T800-160H160Zm0-80h640v-400H447l-80-80H160v480Zm0 0v-480 480Z"/>
    </symbol>
    <symbol id="start"
            height="24px"
            viewBox="0 -960 960 960"
            width="24px">
        <path d="m216-160-56-56 384-384H440v80h-80v-160h233q16 0 31 6t26 17l120 119q27 27 66 42t84 16v80q-62 0-112.5-19T718-476l-40-42-88 88 90 90-262 151-40-69 172-99-68-68-266 265Zm-96-280v-80h200v80H120ZM40-560v-80h200v80H40Zm739-80q-33 0-57-23.5T698-720q0-33 24-56.5t57-23.5q33 0 57 23.5t24 56.5q0 33-24 56.5T779-640Zm-659-40v-80h200v80H120Z"/>
    </symbol>
    <symbol id="history"
            height="24px"
            viewBox="0 -960 960 960"
            width="24px">
        <path
                d="M480-120q-138 0-240.5-91.5T122-440h82q14 104 92.5 172T480-200q117 0 198.5-81.5T760-480q0-117-81.5-198.5T480-760q-69 0-129 32t-101 88h110v80H120v-240h80v94q51-64 124.5-99T480-840q75 0 140.5 28.5t114 77q48.5 48.5 77 114T840-480q0 75-28.5 140.5t-77 114q-48.5 48.5-114 77T480-120Zm112-192L440-464v-216h80v184l128 128-56 56Z"
        />
    </symbol>
    <symbol id="repeat" height="24px" viewBox="0 -960 960 960" width="24px">
        <path
                d="M280-80 120-240l160-160 56 58-62 62h406v-160h80v240H274l62 62-56 58Zm-80-440v-240h486l-62-62 56-58 160 160-160 160-56-58 62-62H280v160h-80Z"
        />
    </symbol>
    <symbol id="arrow"
            height="24px"
            width="24px"
            viewBox="0 -960 960 960"
            style="transition: transform 200ms linear; cursor: pointer"
            fill="#5f6368">
        <path d="M480-360 280-560h400L480-360Z"/>
    </symbol>
    <symbol id="required"
            height="14px"
            fill="var(--error-color)"
            viewBox="0 -960 960 960"
            width="14px">
        <path d="M440-120v-264L254-197l-57-57 187-186H120v-80h264L197-706l57-57 186 187v-264h80v264l186-187 57 57-187 186h264v80H576l187 186-57 57-186-187v264h-80Z"
        />
    </symbol>
    <symbol id="tick" viewBox="0 -960 960 960">
        <path d="M382-240 154-468l57-57 171 171 367-367 57 57-424 424Z"/>
    </symbol>
    <symbol id="notice"
            viewBox="0 -960 960 960">
        <path d="M480-120q-33 0-56.5-23.5T400-200q0-33 23.5-56.5T480-280q33 0 56.5 23.5T560-200q0 33-23.5 56.5T480-120Zm-80-240v-480h160v480H400Z"
        />
    </symbol>
    <symbol id="home" height="24px" viewBox="0 -960 960 960" width="24px">
        <path d="M240-200h120v-240h240v240h120v-360L480-740 240-560v360Zm-80 80v-480l320-240 320 240v480H520v-240h-80v240H160Zm320-350Z"/>
    </symbol>

    <symbol id="error" height="24px" viewBox="0 -960 960 960" width="24px">
        <path d="M330-120 120-330v-300l210-210h300l210 210v300L630-120H330Zm36-190 114-114 114 114 56-56-114-114 114-114-56-56-114 114-114-114-56 56 114 114-114 114 56 56Zm-2 110h232l164-164v-232L596-760H364L200-596v232l164 164Zm116-280Z"/>
    </symbol>

    <symbol id="success" height="24px" viewBox="0 -960 960 960" width="24px">
        <path d="m424-296 282-282-56-56-226 226-114-114-56 56 170 170Zm56 216q-83 0-156-31.5T197-197q-54-54-85.5-127T80-480q0-83 31.5-156T197-763q54-54 127-85.5T480-880q83 0 156 31.5T763-763q54 54 85.5 127T880-480q0 83-31.5 156T763-197q-54 54-127 85.5T480-80Zm0-80q134 0 227-93t93-227q0-134-93-227t-227-93q-134 0-227 93t-93 227q0 134 93 227t227 93Zm0-320Z"/>
    </symbol>

    <symbol id="warning" height="24px" viewBox="0 -960 960 960" width="24px">
        <path d="m40-120 440-760 440 760H40Zm138-80h604L480-720 178-200Zm302-40q17 0 28.5-11.5T520-280q0-17-11.5-28.5T480-320q-17 0-28.5 11.5T440-280q0 17 11.5 28.5T480-240Zm-40-120h80v-200h-80v200Zm40-100Z"/>
    </symbol>

    <symbol id="info" height="24px" viewBox="0 -960 960 960" width="24px">
        <path d="M440-280h80v-240h-80v240Zm40-320q17 0 28.5-11.5T520-640q0-17-11.5-28.5T480-680q-17 0-28.5 11.5T440-640q0 17 11.5 28.5T480-600Zm0 520q-83 0-156-31.5T197-197q-54-54-85.5-127T80-480q0-83 31.5-156T197-763q54-54 127-85.5T480-880q83 0 156 31.5T763-763q54 54 85.5 127T880-480q0 83-31.5 156T763-197q-54 54-127 85.5T480-80Zm0-80q134 0 227-93t93-227q0-134-93-227t-227-93q-134 0-227 93t-93 227q0 134 93 227t227 93Zm0-320Z"/>
    </symbol>

    <symbol id="question" height="24px" viewBox="0 -960 960 960" width="24px" >
        <path d="M424-320q0-81 14.5-116.5T500-514q41-36 62.5-62.5T584-637q0-41-27.5-68T480-732q-51 0-77.5 31T365-638l-103-44q21-64 77-111t141-47q105 0 161.5 58.5T698-641q0 50-21.5 85.5T609-475q-49 47-59.5 71.5T539-320H424Zm56 240q-33 0-56.5-23.5T400-160q0-33 23.5-56.5T480-240q33 0 56.5 23.5T560-160q0 33-23.5 56.5T480-80Z"/>
    </symbol>
</svg>

