<svg xmlns="http://www.w3.org/2000/svg">
    <symbol id="back"
            height="24px"
            viewBox="0 -960 960 960"
            width="24px">
        <path d="m313-440 224 224-57 56-320-320 320-320 57 56-224 224h487v80H313Z"/>
    </symbol>
    <symbol id="reload"
            height="24px"
            viewBox="0 -960 960 960"
            width="24px">
        <path d="M479.54-160.87q-133.76 0-226.94-92.89-93.19-92.9-93.19-226.24t93.19-226.24q93.18-92.89 226.94-92.89 70.66 0 134.21 28.97 63.55 28.96 108.01 84.14v-113.11h78.83v280.72H519.63V-597H681.2q-31.54-54.1-85.15-85.11-53.61-31.02-116.47-31.02-97.34 0-165.75 68.03-68.42 68.03-68.42 165.22 0 97.18 68.29 165.1 68.29 67.91 165.84 67.91 74.23 0 134.31-42.28T698.67-401h90.24q-27.24 106.35-113.38 173.24-86.14 66.89-195.99 66.89Z"/>
    </symbol>
    <symbol id="document"
            height="24px"
            viewBox="0 -960 960 960"
            width="24px">
        <path d="M320-240h320v-80H320v80Zm0-160h320v-80H320v80ZM240-80q-33 0-56.5-23.5T160-160v-640q0-33 23.5-56.5T240-880h320l240 240v480q0 33-23.5 56.5T720-80H240Zm280-520v-200H240v640h480v-440H520ZM240-800v200-200 640-640Z"/>
    </symbol>
    <symbol id="folder"
            height="24px"
            viewBox="0 -960 960 960"
            width="24px">
        <path d="M160-160q-33 0-56.5-23.5T80-240v-480q0-33 23.5-56.5T160-800h240l80 80h320q33 0 56.5 23.5T880-640v400q0 33-23.5 56.5T800-160H160Zm0-80h640v-400H447l-80-80H160v480Zm0 0v-480 480Z"/>
    </symbol>
    <symbol id="start"
            height="24px"
            viewBox="0 -960 960 960"
            width="24px">
        <path d="M80-240v-480h80v480H80Zm560 0-57-56 144-144H240v-80h487L584-664l56-56 240 240-240 240Z"/>
    </symbol>
    <symbol id="history"
            height="24px"
            viewBox="0 -960 960 960"
            width="24px">
        <path
                d="M480-120q-138 0-240.5-91.5T122-440h82q14 104 92.5 172T480-200q117 0 198.5-81.5T760-480q0-117-81.5-198.5T480-760q-69 0-129 32t-101 88h110v80H120v-240h80v94q51-64 124.5-99T480-840q75 0 140.5 28.5t114 77q48.5 48.5 77 114T840-480q0 75-28.5 140.5t-77 114q-48.5 48.5-114 77T480-120Zm112-192L440-464v-216h80v184l128 128-56 56Z"
        />
    </symbol>
    <symbol id="info"
            height="24px"
            viewBox="0 -960 960 960"
            width="24px">
        <path
                d="M700.9-177.08q-55.19 0-93.51-38.31-38.31-38.32-38.31-93.51 0-55.2 38.31-93.52 38.32-38.31 93.51-38.31 55.2 0 93.51 38.31 38.32 38.32 38.32 93.52 0 55.19-38.32 93.51-38.31 38.31-93.51 38.31Zm.04-55.96q31.21 0 53.52-22.23 22.31-22.22 22.31-53.67 0-31.21-22.24-53.52-22.25-22.31-53.56-22.31-31.32 0-53.62 22.24-22.31 22.25-22.31 53.56 0 31.32 22.23 53.62 22.22 22.31 53.67 22.31Zm-529.82-47.88v-55.96h314.3v55.96h-314.3Zm87.98-238.35q-55.2 0-93.51-38.31-38.32-38.32-38.32-93.52 0-55.19 38.32-93.51 38.31-38.31 93.51-38.31 55.19 0 93.51 38.31 38.31 38.32 38.31 93.51 0 55.2-38.31 93.52-38.32 38.31-93.51 38.31Zm.03-55.96q31.22 0 53.52-22.23 22.31-22.22 22.31-53.67 0-31.22-22.24-53.52-22.25-22.31-53.56-22.31-31.31 0-53.62 22.24-22.31 22.25-22.31 53.56 0 31.31 22.23 53.62t53.67 22.31Zm215.45-47.89v-55.96h314.3v55.96h-314.3ZM701-309ZM259.19-651.19Z"
        />
    </symbol>
    <symbol id="repeat" height="24px" viewBox="0 -960 960 960" width="24px">
        <path
                d="M280-80 120-240l160-160 56 58-62 62h406v-160h80v240H274l62 62-56 58Zm-80-440v-240h486l-62-62 56-58 160 160-160 160-56-58 62-62H280v160h-80Z"
        />
    </symbol>
    <symbol id="arrow"
            height="24px"
            width="24px"
            viewBox="0 -960 960 960"
            style="transition: transform 200ms linear; cursor: pointer"
            fill="#5f6368">
        <path d="M480-360 280-560h400L480-360Z"/>
    </symbol>
    <symbol id="required"
            height="14px"
            fill="var(--error-color)"
            viewBox="0 -960 960 960"
            width="14px">
        <path d="M440-120v-264L254-197l-57-57 187-186H120v-80h264L197-706l57-57 186 187v-264h80v264l186-187 57 57-187 186h264v80H576l187 186-57 57-186-187v264h-80Z"
        />
    </symbol>
    <symbol id="tick" viewBox="0 -960 960 960">
        <path d="M382-240 154-468l57-57 171 171 367-367 57 57-424 424Z"/>
    </symbol>
    <symbol id="notice"
            viewBox="0 -960 960 960">
        <path d="M480-120q-33 0-56.5-23.5T400-200q0-33 23.5-56.5T480-280q33 0 56.5 23.5T560-200q0 33-23.5 56.5T480-120Zm-80-240v-480h160v480H400Z"
        />
    </symbol>
</svg>